<svg xmlns="http://www.w3.org/2000/svg" viewBox="0 0 400 300"><g id="_49_camping" data-name="#49_camping"><path d="M155.7,96.86a10.46,10.46,0,0,0,7.11,18.68A13.43,13.43,0,0,0,168,130.16c2.63,1.8,6.67,2.37,8.72-.09-1.24,3.09.64,6.71,3.4,8.56s6.18,2.35,9.47,2.8c5.19.71,10.84,1.33,15.31-1.39,0,2,2.85,2.5,4.88,2.28,4-.44,8-.9,11.67-2.4s7.08-4.2,8.49-7.92c2.3,2.78,7,2.12,9.58-.43s3.42-6.29,4-9.85c0-.2,7.13-4.48,8-5.58a17.93,17.93,0,0,0,3.83-9.51c.09-1.17-.76-4.26-.29-5.13,1-1.86,4.12-2.36,5.4-4.61a17.26,17.26,0,0,0-6.36-23.26c1.43.85,2.59-9,2.65-9.81a13.53,13.53,0,0,0-2-8.54,19.29,19.29,0,0,0-18.44-8.9c-.17-3.12-2.73-5.59-5.43-7.16a23.51,23.51,0,0,0-20.44-1.36,21.67,21.67,0,0,0-21.21-1.65c-3,1.43-5.82,3.87-6.37,7.14-5.84-2.93-13.53-2.52-17.65,3.17a12,12,0,0,0-1.51,11,9.84,9.84,0,0,0-6.23,18.09A10.86,10.86,0,0,0,150,81.21a15.93,15.93,0,0,0-.93,9.93C149.45,92.59,153.64,98.47,155.7,96.86Z" fill="#fff"/><path d="M208.76,142.87a5.59,5.59,0,0,1-3.63-1.07,2.25,2.25,0,0,1-.65-1c-4.34,2.32-9.58,1.85-15,1.1-3.17-.43-6.77-.92-9.68-2.87-2.36-1.58-4.31-4.6-4-7.6-2.33,1.38-5.73.77-8.15-.87a13.89,13.89,0,0,1-5.51-14.52,11,11,0,0,1-7.93-18.52l-.13-.05c-2.34-.8-5.17-4.92-5.5-6.23a16.41,16.41,0,0,1,1-10.28,11.53,11.53,0,0,1,6.75-5.61A10.34,10.34,0,0,1,163,57a12.42,12.42,0,0,1,1.81-10.73c4.22-5.82,12-6.21,17.71-3.6.71-2.74,3.05-5.22,6.5-6.87A22.06,22.06,0,0,1,210.5,37.3a24.07,24.07,0,0,1,20.63,1.49c1.94,1.12,5.16,3.49,5.63,7A19.86,19.86,0,0,1,255.17,55a14,14,0,0,1,2,8.83c0,.08-.76,7.77-2.16,9.8a18.11,18.11,0,0,1,7.64,11.12,17.73,17.73,0,0,1-1.83,12.36,8.12,8.12,0,0,1-3.11,2.71,6.06,6.06,0,0,0-2.29,1.9,8,8,0,0,0,.15,2.74,11.21,11.21,0,0,1,.19,2.18,18.5,18.5,0,0,1-3.93,9.79,41.07,41.07,0,0,1-5.87,4.16c-.86.56-1.75,1.13-2.05,1.36-.62,3.66-1.57,7.38-4.12,9.94a8.24,8.24,0,0,1-6.12,2.37,5.82,5.82,0,0,1-3.65-1.4,15.58,15.58,0,0,1-8.47,7.5c-3.79,1.53-7.87,2-11.81,2.42A8.35,8.35,0,0,1,208.76,142.87Zm-3.91-3.33a.57.57,0,0,1,.25.06.52.52,0,0,1,.25.44,1.3,1.3,0,0,0,.45,1c.81.73,2.53.91,3.87.76,3.88-.43,7.88-.88,11.54-2.36,4-1.62,7-4.41,8.21-7.64a.51.51,0,0,1,.39-.32.5.5,0,0,1,.47.18,4.64,4.64,0,0,0,3.47,1.61,7.24,7.24,0,0,0,5.37-2.08c2.4-2.4,3.28-6,3.87-9.57,0-.29,0-.29,2.47-1.86a47.39,47.39,0,0,0,5.62-4,17.42,17.42,0,0,0,3.73-9.24,11.83,11.83,0,0,0-.19-2c-.24-1.64-.38-2.76,0-3.38A6.77,6.77,0,0,1,257.24,99,7.16,7.16,0,0,0,260,96.64a16.77,16.77,0,0,0-6.18-22.58h0a.49.49,0,0,1-.18-.68.48.48,0,0,1,.58-.22c.83-.77,1.86-7.42,2-9.37a13.11,13.11,0,0,0-1.89-8.25,18.78,18.78,0,0,0-17.94-8.66.5.5,0,0,1-.39-.11.49.49,0,0,1-.17-.36c-.19-3.37-3.34-5.68-5.2-6.76a23,23,0,0,0-20-1.32.54.54,0,0,1-.48,0,21.06,21.06,0,0,0-20.72-1.62c-1.62.77-5.45,3-6.08,6.77a.52.52,0,0,1-.27.37.51.51,0,0,1-.45,0c-5.41-2.72-13-2.55-17,3a11.56,11.56,0,0,0-1.44,10.52.5.5,0,0,1-.08.47.5.5,0,0,1-.44.2,9.34,9.34,0,0,0-5.91,17.17.51.51,0,0,1,.22.52.48.48,0,0,1-.39.39,10.44,10.44,0,0,0-7.12,5.36,15.49,15.49,0,0,0-.89,9.58c.25,1,2.87,4.85,4.86,5.53a1,1,0,0,0,1-.08h0a.5.5,0,0,1,.62.78A10,10,0,0,0,162.78,115a.5.5,0,0,1,.43.19.49.49,0,0,1,.08.45,13,13,0,0,0,4.94,14.07c2.52,1.72,6.22,2.2,8.05,0a.5.5,0,0,1,.85.51c-1.19,3,.77,6.32,3.22,8,2.72,1.82,6.19,2.29,9.26,2.71,5.51.76,10.8,1.23,15-1.32A.48.48,0,0,1,204.85,139.54ZM254.31,73.2Z" fill="#d1d3d4"/><path d="M183.63,71.76,198.3,99.44l-2.13,91.93c.65-.19,10.94,2.69,10.94,2.69V99.44l23.87-12" fill="#fff"/><path d="M207.11,194.56a.3.3,0,0,1-.13,0c-4.68-1.31-10-2.68-10.7-2.68h0a.47.47,0,0,1-.41-.09.51.51,0,0,1-.17-.42l2.12-91.79L183.19,72a.5.5,0,0,1,.2-.68.5.5,0,0,1,.68.21l14.67,27.68a.5.5,0,0,1,.06.24l-2.12,91.47c1.68.24,6.06,1.4,9.93,2.48v-94a.49.49,0,0,1,.28-.44l23.86-12a.5.5,0,1,1,.45.89L207.61,99.75v94.31a.48.48,0,0,1-.2.4A.45.45,0,0,1,207.11,194.56Z" fill="#d1d3d4"/><path d="M204.78,91.68a.49.49,0,0,1-.44-.26l-12.2-22a.5.5,0,0,1,.88-.48l12,21.59L225.7,79.73a.5.5,0,1,1,.46.88L205,91.62A.46.46,0,0,1,204.78,91.68Z" fill="#d1d3d4"/><path d="M76.93,92.76a12.45,12.45,0,0,0,3.63,24.48,10.22,10.22,0,0,0,8.77,18.39,13.41,13.41,0,0,0,21.53,9.56,15.43,15.43,0,0,0,23.93-4.94,13.82,13.82,0,0,0,20.49-14.32c5.62-2.05,10.77-6.14,12.81-11.77s.2-12.78-5-15.78a13.39,13.39,0,0,0-14-18.55,12.34,12.34,0,0,0-16.88-15c0-2.14-2.12-3.59-4-4.56-4-2-8.37-3.83-12.88-3.64s-9.19,2.82-10.46,7.15a9.85,9.85,0,0,0-10.58-3c-3,1-6.19,4-6.9,7.12-.44,1.93-.16,3.93-.48,5.83-5.1.3-9.8,2.33-12.69,6.94C71.42,85.08,72.19,90.11,76.93,92.76Z" fill="#fff"/><path d="M121,149.41a16.35,16.35,0,0,1-10.2-3.58,13.9,13.9,0,0,1-21.94-9.52A10.71,10.71,0,0,1,79,117.69,12.93,12.93,0,0,1,75.75,92.6a8.29,8.29,0,0,1-3.41-4.75,9.61,9.61,0,0,1,1.44-7.47c2.68-4.25,7-6.71,12.68-7.14.09-.71.11-1.44.13-2.2a16.65,16.65,0,0,1,.3-3.27c.8-3.51,4.32-6.48,7.23-7.48a10.43,10.43,0,0,1,10.55,2.54c1.76-4.36,6.63-6.52,10.63-6.68,4.75-.19,9.3,1.76,13.12,3.69,1,.5,3.77,1.91,4.25,4.29a12.83,12.83,0,0,1,17.12,15.13,13.89,13.89,0,0,1,13.94,18.91c4.89,3.11,7,10.1,4.83,16.16-1.89,5.23-6.52,9.56-12.73,11.92A14.32,14.32,0,0,1,135,140.94a16.27,16.27,0,0,1-10.86,8.15A15.39,15.39,0,0,1,121,149.41Zm-10.18-4.72a.52.52,0,0,1,.33.12A14.92,14.92,0,0,0,134.34,140a.48.48,0,0,1,.3-.26.51.51,0,0,1,.4,0A13.32,13.32,0,0,0,154.78,126a.5.5,0,0,1,.32-.55c6-2.2,10.72-6.48,12.52-11.47,2.07-5.77,0-12.43-4.77-15.18a.5.5,0,0,1-.21-.63,12.89,12.89,0,0,0-13.47-17.86.46.46,0,0,1-.44-.17.52.52,0,0,1-.1-.48,11.83,11.83,0,0,0-16.19-14.36.49.49,0,0,1-.48,0,.47.47,0,0,1-.22-.42c0-1.48-1.22-2.83-3.77-4.12-3.7-1.87-8.09-3.77-12.63-3.58-3.9.16-8.69,2.35-10,6.79a.5.5,0,0,1-.38.35.49.49,0,0,1-.49-.17,9.31,9.31,0,0,0-10-2.88c-2.69.93-5.89,3.71-6.58,6.76a15.73,15.73,0,0,0-.28,3.07,18.1,18.1,0,0,1-.2,2.73.49.49,0,0,1-.46.41c-3.83.22-9.07,1.57-12.3,6.7a8.61,8.61,0,0,0-1.32,6.69,7.59,7.59,0,0,0,3.86,4.72.5.5,0,0,1-.11.92,11.95,11.95,0,0,0,3.48,23.5.54.54,0,0,1,.5.36.49.49,0,0,1-.23.57,9.73,9.73,0,0,0,8.35,17.5.49.49,0,0,1,.44,0,.52.52,0,0,1,.23.38,12.9,12.9,0,0,0,20.73,9.2A.47.47,0,0,1,110.86,144.69Z" fill="#d1d3d4"/><path d="M135.4,87.83l-11.74,38.51.36,70c-.59-.17-9.92,2.45-9.92,2.45V124.13L97,107.06" fill="#fff"/><path d="M114.1,199.25a.52.52,0,0,1-.5-.5V124.34L96.68,107.41a.5.5,0,0,1,0-.7.5.5,0,0,1,.71,0l17.07,17.07a.5.5,0,0,1,.14.35v74c4.67-1.3,7.65-2.05,8.92-2.24l-.36-69.51a.32.32,0,0,1,0-.14l11.74-38.52a.51.51,0,0,1,.63-.33.5.5,0,0,1,.33.62l-11.72,38.45.36,69.88a.51.51,0,0,1-.19.4.5.5,0,0,1-.44.08h0c-.56,0-5.39,1.26-9.64,2.45Z" fill="#d1d3d4"/><path d="M117.45,115.87a.51.51,0,0,1-.34-.13l-15.46-14a.5.5,0,0,1,.67-.74l14.89,13.45,9.6-29.17a.5.5,0,0,1,.63-.32.51.51,0,0,1,.32.63l-9.84,29.9a.47.47,0,0,1-.35.33Z" fill="#d1d3d4"/><path d="M247.08,115.76l0,.33a9.32,9.32,0,0,0,7.61,8.18c-2.52,2.65-3.7,6.72-2.33,10.11s5.61,5.53,8.95,4c-.33,4.63,1.56,9.65,5.57,12s10.09.91,11.79-3.41c.48,4.38,3.37,9.24,7.78,9.16s7-4.71,8.24-8.83a10.72,10.72,0,0,0,19.22-8.6c2.33,1.92,6,1.63,8.41-.14a12.13,12.13,0,0,0,4.39-7.67,12.31,12.31,0,0,0-3.26-11.18c1.3-.91,2.54-.9,3.71-2.31a11.68,11.68,0,0,0,2.71-6.82c.18-4.08-2.34-8.49-6.25-9.71.26-3.39.12-6.71-2.25-9.44a8.2,8.2,0,0,0-9.11-2.37c1.41-3.31-.44-7.37-3.49-9.29s-6.92-2-10.45-1.34c-1.54.31-3.25.94-3.81,2.41-1.2-3.49-5.09-5.64-8.77-5.38a12.57,12.57,0,0,0-9.13,5.59,12.81,12.81,0,0,0-16.86,2.21,8,8,0,0,0-2,5.42A4.7,4.7,0,0,0,261.22,93a7.35,7.35,0,0,0-8.54,2.5,10.31,10.31,0,0,0,.56,12.7c-.66-.73-4.25,2.83-4.66,3.31A5.38,5.38,0,0,0,247.08,115.76Z" fill="#fff"/><path d="M286.36,156.66c-4.13,0-7-3.94-7.91-8.12a7.93,7.93,0,0,1-4,2.94,9.5,9.5,0,0,1-7.79-.64c-3.72-2.16-6-6.7-5.85-11.69a6.86,6.86,0,0,1-4.49-.29,8,8,0,0,1-4.4-4.29,10.16,10.16,0,0,1,1.86-10,9.78,9.78,0,0,1-7.17-8.45l0-.34h0a5.88,5.88,0,0,1,1.62-4.58,19.71,19.71,0,0,1,4.07-3.38,10.84,10.84,0,0,1,0-12.6,8.07,8.07,0,0,1,6.38-3.2,5.58,5.58,0,0,1-1.36-3.28A8.39,8.39,0,0,1,259.39,83a13.36,13.36,0,0,1,17.13-2.59,13,13,0,0,1,9.21-5.4,9.37,9.37,0,0,1,8.88,4.77A6.15,6.15,0,0,1,298.26,78c3-.59,7.26-.83,10.81,1.41,2.79,1.76,4.88,5.43,4,8.91a8.85,8.85,0,0,1,8.7,2.84c2.43,2.8,2.62,6.16,2.4,9.42,3.71,1.38,6.42,5.72,6.22,10.08a12.3,12.3,0,0,1-2.82,7.12,5.78,5.78,0,0,1-2.44,1.68c-.31.14-.6.27-.9.43a12.74,12.74,0,0,1,3,11.15,12.57,12.57,0,0,1-4.58,8,7.84,7.84,0,0,1-8,.78,11.22,11.22,0,0,1-19.74,8.6c-1.06,3-3.6,8.19-8.4,8.28ZM278.7,146.5h.06a.51.51,0,0,1,.44.44c.47,4.31,3.27,8.72,7.17,8.72h.1c4.68-.09,7-5.95,7.77-8.47a.48.48,0,0,1,.4-.35.5.5,0,0,1,.49.21,10.23,10.23,0,0,0,18.33-8.21.51.51,0,0,1,.22-.54.51.51,0,0,1,.58,0c2,1.67,5.37,1.61,7.8-.15a11.6,11.6,0,0,0,4.19-7.36,11.76,11.76,0,0,0-3.14-10.75.51.51,0,0,1-.12-.39.49.49,0,0,1,.21-.36,7.92,7.92,0,0,1,1.54-.81,4.89,4.89,0,0,0,2.07-1.41,11.27,11.27,0,0,0,2.59-6.53c.18-4.07-2.41-8.12-5.89-9.2a.5.5,0,0,1-.35-.52c.24-3.16.15-6.44-2.13-9.07a7.66,7.66,0,0,0-8.54-2.24.51.51,0,0,1-.55-.11.49.49,0,0,1-.11-.55c1.37-3.21-.65-7-3.3-8.66-3.27-2.07-7.29-1.84-10.08-1.28-1.9.38-3.06,1.08-3.44,2.09a.58.58,0,0,1-.48.33.5.5,0,0,1-.46-.34c-1.07-3.13-4.64-5.3-8.27-5a12.1,12.1,0,0,0-8.75,5.38.49.49,0,0,1-.33.21.45.45,0,0,1-.37-.09,12.3,12.3,0,0,0-16.18,2.13,7.42,7.42,0,0,0-1.88,5.07,4.44,4.44,0,0,0,2.29,3.6,5.58,5.58,0,0,1,.84.29.48.48,0,0,1,.28.6.5.5,0,0,1-.58.35,4.17,4.17,0,0,1-.9-.31,7,7,0,0,0-7.13,2.61,9.78,9.78,0,0,0,.52,12.07h0a.51.51,0,0,1,0,.71.5.5,0,0,1-.63,0c-.72.08-3.31,2.45-4,3.24a4.87,4.87,0,0,0-1.38,3.86c0,.11,0,.21,0,.32a8.86,8.86,0,0,0,7.19,7.72.5.5,0,0,1,.4.34.49.49,0,0,1-.11.5,9.26,9.26,0,0,0-2.23,9.58,7,7,0,0,0,3.84,3.74,5.64,5.64,0,0,0,4.45,0,.5.5,0,0,1,.7.49c-.28,4,1.25,9.16,5.32,11.52a8.58,8.58,0,0,0,7,.57,6.55,6.55,0,0,0,4.11-3.73A.51.51,0,0,1,278.7,146.5Z" fill="#d1d3d4"/><path d="M273.68,103l9.94,32.6-.31,59.2c.5-.14,8.39,2.07,8.39,2.07V133.67l14.45-14.44" fill="#fff"/><path d="M291.7,197.32a.3.3,0,0,1-.13,0c-3.06-.85-7.61-2.05-8.19-2.05h0a.45.45,0,0,1-.4-.09.48.48,0,0,1-.16-.41l.31-59.13L273.2,103.1a.51.51,0,0,1,.33-.63.51.51,0,0,1,.63.34l9.93,32.59a.4.4,0,0,1,0,.15l-.31,58.76c.81.13,2.73.56,7.39,1.85V133.67a.47.47,0,0,1,.15-.35l14.44-14.45a.51.51,0,0,1,.71,0,.5.5,0,0,1,0,.71l-14.3,14.3v62.94a.48.48,0,0,1-.2.4A.45.45,0,0,1,291.7,197.32Z" fill="#d1d3d4"/><path d="M288.87,126.76l-.13,0a.48.48,0,0,1-.34-.32l-8.33-25.31a.5.5,0,0,1,.95-.31l8.09,24.57,12.51-11.3a.49.49,0,0,1,.7,0,.5.5,0,0,1,0,.71l-13.08,11.82A.55.55,0,0,1,288.87,126.76Z" fill="#d1d3d4"/><path d="M130.77,185.88q-16.25.81-32.48,1.93c-11.61.79-23-2.08-34.05,3.36a35.24,35.24,0,0,0-17.24,19,15.69,15.69,0,0,0-1.22,7.29c.67,5.73,6,9.7,11.08,12.4,15.55,8.21,35.23,11.64,52.64,9.61a4.49,4.49,0,0,1,2,.07c1.08.37,1.69,1.49,2.27,2.49,7.77,13.53,24.69,18.35,40.06,21.07,15.19,2.69,31.37,4.38,46.5.42,13.57-3.55,25.47-8.49,36.57-17.1,6.4,5.62,15.11,8.15,23.63,8.2s16.9-2.23,24.86-5.26c8.68-3.3,17.63-8.16,21.4-16.64.79-1.79,2.57-5.24,2.57-5.24,1-2,15-2.71,17.41-3.21,8.11-1.68,20.29-4.24,25.21-11.57,5.93-8.84-.51-21.48-9.9-24.41-14.5-4.52-32.89-2.23-47.94-2.88q-34.4-1.5-68.84-1.65-42.37-.18-84.73,1.7C137.32,185.56,134,185.71,130.77,185.88Z" fill="#fff"/><path d="M180.61,266.33a154.17,154.17,0,0,1-26.84-2.79c-14.6-2.58-32.38-7.34-40.41-21.31l-.06-.11c-.52-.91-1.07-1.86-1.94-2.16a4,4,0,0,0-1.8,0C91.79,242,72,238.37,56.63,230.25c-7.06-3.72-10.77-7.91-11.35-12.78a15.94,15.94,0,0,1,1.26-7.53A35.69,35.69,0,0,1,64,190.72c7.77-3.83,15.84-3.59,23.65-3.37,3.47.1,7,.2,10.59,0,10.82-.75,21.75-1.39,32.48-1.93l0,.5,0-.5c3.28-.16,6.56-.32,9.84-.46,28.11-1.25,56.62-1.82,84.76-1.71,22.86.1,46,.65,68.85,1.65,4.51.19,9.23.13,14.23.06,11.61-.17,23.61-.34,33.83,2.85a18.59,18.59,0,0,1,11.54,11.61,14.87,14.87,0,0,1-1.37,13.55c-5.05,7.54-17.37,10.09-25.52,11.78-.69.14-2.17.29-4,.47-4,.4-12.38,1.24-13,2.48,0,0-1.77,3.46-2.55,5.21-4.15,9.34-14.36,14.13-21.69,16.91-9.47,3.6-17.35,5.29-24.78,5.29h-.26c-9.23,0-17.61-2.91-23.64-8.06-10.11,7.77-21.36,13-36.42,16.94A78.18,78.18,0,0,1,180.61,266.33Zm-70.05-27.49a3.41,3.41,0,0,1,1.13.17,5.13,5.13,0,0,1,2.48,2.61l.06.11c7.82,13.61,25.33,18.28,39.71,20.83,14.13,2.5,30.68,4.51,46.3.43,15.08-3.95,26.3-9.2,36.38-17a.51.51,0,0,1,.64,0c5.87,5.16,14.14,8,23.3,8.08h.25c7.31,0,15.08-1.66,24.43-5.22,7.15-2.73,17.13-7.39,21.13-16.39.78-1.77,2.5-5.11,2.57-5.26.82-1.59,6.74-2.31,13.81-3,1.78-.18,3.31-.33,3.94-.46,8-1.66,20.07-4.16,24.9-11.36a13.9,13.9,0,0,0,1.26-12.66,17.85,17.85,0,0,0-10.89-11c-10.07-3.14-22-3-33.52-2.8-5,.07-9.76.13-14.29-.06-22.82-1-46-1.55-68.82-1.65-28.12-.12-56.61.46-84.7,1.7-3.28.15-6.56.3-9.84.47h0c-10.73.53-21.65,1.18-32.46,1.93-3.59.24-7.2.14-10.69,0-8-.23-15.63-.45-23.18,3.26a34.71,34.71,0,0,0-17,18.69,14.94,14.94,0,0,0-1.19,7c.53,4.53,4.07,8.46,10.81,12,15.21,8,34.77,11.6,52.35,9.55A9.83,9.83,0,0,1,110.56,238.84Z" fill="#d1d3d4"/><path d="M78.87,196.24c.75-3.09,1.22-4.9,3.44-7.14,2.49-2.52,6.75-3.49,9.66-1.48a10.88,10.88,0,0,1-.1-6.68c1.39-5.27,5.55-10,10.89-11s11.47,2.48,12.4,7.85c1.23-2.36,4.52-3,7-2s4.18,3.26,5.46,5.59a29.05,29.05,0,0,1,3.49,16" fill="#fff"/><path d="M131.08,197.91h0a.52.52,0,0,1-.48-.56,28.58,28.58,0,0,0-3.43-15.74c-1.53-2.8-3.23-4.55-5.2-5.36-2.14-.89-5.19-.38-6.31,1.77a.54.54,0,0,1-.54.27.53.53,0,0,1-.43-.42,8.76,8.76,0,0,0-3.81-5.65,10.79,10.79,0,0,0-8-1.78c-4.84.93-9.06,5.2-10.49,10.63a10.22,10.22,0,0,0,.09,6.37.52.52,0,0,1-.78.61c-2.83-2-6.8-.82-9,1.41s-2.53,3.71-3.29,6.9a.52.52,0,0,1-.63.38.53.53,0,0,1-.38-.62c.73-3,1.21-5,3.57-7.39,2.22-2.24,6-3.49,9.17-2.17a12.26,12.26,0,0,1,.26-5.75c1.53-5.81,6.07-10.39,11.3-11.39a11.93,11.93,0,0,1,8.76,2,10.11,10.11,0,0,1,4,5.18,6.42,6.42,0,0,1,6.94-1.26c2.19.91,4,2.81,5.71,5.82a29.63,29.63,0,0,1,3.55,16.32A.52.52,0,0,1,131.08,197.91Z" fill="#231f20"/><path d="M72.5,196.83a162.75,162.75,0,0,1,27.48-.74c11.21.53,39.71,1.55,39.71,1.55" fill="#fff"/><path d="M139.69,198.16h0c-.28,0-28.63-1-39.71-1.55a165,165,0,0,0-27.39.73.51.51,0,0,1-.14-1,165.72,165.72,0,0,1,27.58-.75c11.08.53,39.41,1.55,39.7,1.55a.52.52,0,0,1,0,1Z" fill="#231f20"/><polygon points="154.04 111.63 258.46 111.63 300.95 203.32 196.53 203.32 154.04 111.63" fill="#68e1fd"/><polygon points="154.04 111.63 110.56 203.32 196.53 203.32 154.04 111.63" fill="#fff"/><path d="M196.53,203.84h-86a.52.52,0,0,1-.46-.74l43.47-91.69a.52.52,0,0,1,.47-.29h0a.52.52,0,0,1,.47.29L197,203.11a.52.52,0,0,1-.47.73Zm-85.15-1h84.34l-41.69-90Z" fill="#231f20"/><path d="M154,140.62c-9,51.66-18.64,62.7-18.64,62.7h36.29S159.15,185.79,154,140.62Z" fill="#231f20"/><path d="M171.69,203.84H135.4a.53.53,0,0,1-.47-.3A.53.53,0,0,1,135,203c.1-.11,9.62-11.66,18.52-62.46a.53.53,0,0,1,.52-.42.51.51,0,0,1,.5.45c5,44.48,17.43,62.29,17.56,62.47a.51.51,0,0,1,0,.53A.53.53,0,0,1,171.69,203.84Zm-35.27-1h34.32c-2.37-3.85-12.14-21.52-16.8-58.68C146.37,185.73,138.66,199.51,136.42,202.81Z" fill="#231f20"/><path d="M232.13,214.24a.51.51,0,0,1-.41-.2L154,112.49,79.11,212.85a.52.52,0,1,1-.83-.61l75.34-100.92a.52.52,0,0,1,.42-.2h0a.51.51,0,0,1,.41.2l78.09,102.09a.51.51,0,0,1-.1.72A.45.45,0,0,1,232.13,214.24Z" fill="#231f20"/><polygon points="81.94 216.68 77.22 203.32 72.5 207.23 78.69 216.09 81.94 216.68" fill="#231f20"/><path d="M81.94,217.19h-.09l-3.25-.59a.52.52,0,0,1-.33-.21l-6.19-8.85a.5.5,0,0,1,.09-.69l4.72-3.91a.5.5,0,0,1,.47-.1.51.51,0,0,1,.35.32l4.72,13.35a.52.52,0,0,1-.1.51A.5.5,0,0,1,81.94,217.19ZM79,215.62l2.16.39L77,204.19l-3.79,3.14Z" fill="#231f20"/><polygon points="230.06 216.68 234.78 203.32 239.5 207.23 233.31 216.09 230.06 216.68" fill="#231f20"/><path d="M230.06,217.19a.5.5,0,0,1-.39-.18.52.52,0,0,1-.1-.51l4.72-13.35a.51.51,0,0,1,.35-.32.5.5,0,0,1,.47.1l4.72,3.91a.5.5,0,0,1,.09.69l-6.19,8.85a.52.52,0,0,1-.33.21l-3.25.59Zm5-13L230.84,216l2.16-.39,5.81-8.29Z" fill="#231f20"/><polygon points="325.76 210 330.49 196.65 335.21 200.56 329.01 209.41 325.76 210" fill="#231f20"/><path d="M325.77,210.52a.53.53,0,0,1-.4-.19.51.51,0,0,1-.09-.5L330,196.48a.55.55,0,0,1,.35-.33.56.56,0,0,1,.47.1l4.72,3.91a.52.52,0,0,1,.09.69l-6.2,8.86a.5.5,0,0,1-.33.21l-3.24.59Zm5-13-4.18,11.81,2.16-.39,5.8-8.29Z" fill="#231f20"/><path d="M330.49,203.84a.51.51,0,0,1-.41-.2l-72-91.69a.5.5,0,0,1,.09-.72.51.51,0,0,1,.72.08l72,91.7a.5.5,0,0,1-.09.72A.51.51,0,0,1,330.49,203.84Z" fill="#231f20"/><path d="M213.1,137.92s4.18,17.68,8.11,22.59h22.9s-7-20.33-8-24.57Z" fill="#231f20"/><path d="M244.11,161h-22.9a.53.53,0,0,1-.4-.19c-4-5-8-22.08-8.21-22.8a.48.48,0,0,1,.08-.42.52.52,0,0,1,.38-.21l23.06-2a.51.51,0,0,1,.55.4c1,4.17,7.86,24.32,7.93,24.53a.54.54,0,0,1-.07.46A.51.51,0,0,1,244.11,161Zm-22.64-1h21.92c-1.2-3.51-6.46-19-7.62-23.51l-22,1.89C214.49,141.42,218.09,155.5,221.47,160Z" fill="#231f20"/><path d="M239.42,131.25H217.34v9.37h22.08a4.69,4.69,0,1,0,0-9.37Z" fill="#fff"/><path d="M239.42,141.14H217.34a.52.52,0,0,1-.52-.52v-9.37a.51.51,0,0,1,.52-.51h22.08a5.2,5.2,0,1,1,0,10.4Zm-21.56-1h21.56a4.17,4.17,0,1,0,0-8.34H217.86Z" fill="#231f20"/><circle cx="217.34" cy="135.94" r="4.68" fill="#fff"/><path d="M217.34,141.14a5.2,5.2,0,1,1,5.2-5.2A5.21,5.21,0,0,1,217.34,141.14Zm0-9.37a4.17,4.17,0,1,0,4.17,4.17A4.17,4.17,0,0,0,217.34,131.77Z" fill="#231f20"/><path d="M135.4,203.32l-7.13-11.43s21-26.41,25.77-51.27C154,140.62,148,182.89,135.4,203.32Z" fill="#fff"/><path d="M135.4,203.84a.52.52,0,0,1-.44-.24l-7.13-11.44a.51.51,0,0,1,0-.59c.21-.27,21-26.6,25.67-51a.52.52,0,0,1,1,.17c-.06.43-6.16,42.62-18.71,62.91a.51.51,0,0,1-.44.24Zm-6.51-11.92,6.5,10.42c8.31-13.93,13.71-37.52,16.31-51.17C144.85,171,130.84,189.41,128.89,191.92Z" fill="#231f20"/><path d="M260,216.09c.34-3.16,2.22-8.67,4.44-10.91,2.49-2.51,6.75-3.48,9.66-1.47A10.91,10.91,0,0,1,274,197c1.39-5.26,5.55-10,10.89-11s11.46,2.48,12.4,7.84c1.23-2.35,4.51-3,7-2s4.18,3.26,5.46,5.58c2.67,4.86,3.22,11.92,2.81,17.45" fill="#fff"/><path d="M260,216.6H260a.52.52,0,0,1-.46-.57c.32-3,2.14-8.75,4.58-11.21,2.22-2.24,6-3.5,9.17-2.17a12.18,12.18,0,0,1,.26-5.76c1.53-5.81,6.07-10.38,11.3-11.38a11.8,11.8,0,0,1,8.75,2,10,10,0,0,1,4,5.18,6.37,6.37,0,0,1,6.93-1.26c2.2.9,4.06,2.8,5.72,5.81,2.31,4.21,3.38,10.84,2.87,17.73a.53.53,0,0,1-.55.48.51.51,0,0,1-.48-.55c.5-6.71-.53-13.12-2.75-17.16-1.53-2.8-3.23-4.55-5.2-5.36-2.14-.88-5.19-.38-6.31,1.77a.53.53,0,0,1-.54.27.51.51,0,0,1-.43-.42A8.79,8.79,0,0,0,293,188.3a10.79,10.79,0,0,0-8-1.78c-4.85.93-9.06,5.2-10.49,10.63a10.3,10.3,0,0,0,.08,6.37.5.5,0,0,1-.16.59.51.51,0,0,1-.61,0c-2.83-1.95-6.8-.81-9,1.41s-4,7.67-4.28,10.6A.53.53,0,0,1,260,216.6Z" fill="#231f20"/><path d="M322.7,64.55a13,13,0,0,0,5.88-2.62,17.22,17.22,0,1,1-3.88-22.59,12.88,12.88,0,0,0-6.43-.51,13,13,0,1,0,4.43,25.72Z" fill="#fff"/><path d="M313.93,70.54a17.75,17.75,0,0,1-17.44-14.72A17.73,17.73,0,0,1,325,38.94a.52.52,0,0,1,.13.64.5.5,0,0,1-.6.23,12.55,12.55,0,1,0-1.93,24.25h0a12.43,12.43,0,0,0,5.66-2.53.51.51,0,0,1,.65,0,.5.5,0,0,1,.09.64,17.73,17.73,0,0,1-12,8.09A17.34,17.34,0,0,1,313.93,70.54Zm0-34.45a16.9,16.9,0,0,0-2.83.24,16.73,16.73,0,1,0,15.45,27.46,13.59,13.59,0,0,1-3.8,1.26h0a13.56,13.56,0,1,1-4.6-26.72,13.82,13.82,0,0,1,4-.08A16.72,16.72,0,0,0,314,36.09Zm8.74,28.46h0Z" fill="#d1d3d4"/><path d="M237.64,218.76a.39.39,0,0,1-.15,0c-7.39-2.27-12-.05-12,0a.54.54,0,0,1-.7-.23.52.52,0,0,1,.23-.69c.2-.1,5-2.43,12.78,0a.51.51,0,0,1-.15,1Z" fill="#231f20"/><path d="M86.76,218.37a.63.63,0,0,1-.19,0c-3.43-1.34-14-2.13-14.11-2.13a.52.52,0,1,1,.08-1c.44,0,10.84.81,14.41,2.2a.51.51,0,0,1,.29.66A.5.5,0,0,1,86.76,218.37Z" fill="#231f20"/><path d="M332.31,211.14a.5.5,0,0,1-.24-.06c-3.73-1.93-9.12,0-9.18,0a.52.52,0,0,1-.35-1c.24-.09,5.87-2.12,10,0a.51.51,0,0,1-.23,1Z" fill="#231f20"/><path d="M301,201a.51.51,0,0,1-.51-.51,6.51,6.51,0,0,0-2.11-4.43c-1.63-1.4-4.07-1.89-7.26-1.45a.49.49,0,0,1-.58-.44.51.51,0,0,1,.43-.58c3.51-.49,6.23.09,8.1,1.69a7.49,7.49,0,0,1,2.45,5.2.51.51,0,0,1-.51.52Z" fill="#231f20"/><path d="M253.38,216.68s44-3,69.34-.59" fill="#fff"/><path d="M253.37,217.19a.52.52,0,0,1,0-1c.44,0,44.3-2.93,69.42-.59a.52.52,0,0,1-.09,1c-25-2.33-68.82.56-69.26.59Z" fill="#231f20"/><path d="M233.49,236.06h-9.44a.5.5,0,0,1,0-1h9.44a.5.5,0,0,1,0,1Z" fill="#d1d3d4"/><path d="M111.36,217.61a.49.49,0,0,1-.48-.36.5.5,0,0,1,.34-.62,19.58,19.58,0,0,1,7.69-.64.5.5,0,0,1,.43.56.49.49,0,0,1-.55.44,18.49,18.49,0,0,0-7.29.6Z" fill="#d1d3d4"/><path d="M193.58,219.5l-.12,0a13.92,13.92,0,0,0-4.94-.32.52.52,0,0,1-.56-.44.5.5,0,0,1,.45-.55,15.18,15.18,0,0,1,5.29.34.5.5,0,0,1-.12,1Z" fill="#d1d3d4"/><path d="M289.23,228.72h0l-5.78-.44a.5.5,0,0,1-.47-.54.5.5,0,0,1,.54-.46l5.79.44a.5.5,0,0,1,0,1Z" fill="#d1d3d4"/><path d="M97,227.44h0l-5.9-.57a.49.49,0,0,1-.45-.54.5.5,0,0,1,.54-.45l5.91.56a.51.51,0,0,1,.45.55A.5.5,0,0,1,97,227.44Z" fill="#d1d3d4"/><polygon points="160.16 231.72 175.07 235.25 173.53 242.13 156.33 233.52 160.16 231.72" fill="#fff"/><path d="M173.53,242.65a.53.53,0,0,1-.23-.06L156.1,234a.52.52,0,0,1-.29-.47.51.51,0,0,1,.3-.46l3.83-1.79a.47.47,0,0,1,.33,0l14.92,3.53a.51.51,0,0,1,.39.61L174,242.24a.54.54,0,0,1-.28.36A.59.59,0,0,1,173.53,242.65Zm-16-9.12,15.66,7.84,1.29-5.74-14.25-3.36Z" fill="#231f20"/><polygon points="152.2 231.34 129.88 233.93 131.33 240.35 152.2 234.76 152.2 231.34" fill="#fff"/><path d="M131.33,240.87a.5.5,0,0,1-.26-.08.51.51,0,0,1-.24-.32L129.37,234a.54.54,0,0,1,.45-.63l22.32-2.58a.5.5,0,0,1,.4.13.49.49,0,0,1,.17.38v3.42a.5.5,0,0,1-.38.49l-20.86,5.6Zm-.82-6.5,1.21,5.34,20-5.35v-2.44Z" fill="#231f20"/><path d="M155,228.6c-.4.19-2.79,2.46-2.79,2.46l10.39,18.52,5.74-3.34Z" fill="#fff"/><path d="M162.61,250.09h-.13a.54.54,0,0,1-.32-.25l-10.39-18.52a.52.52,0,0,1,.1-.62,29,29,0,0,1,2.91-2.56.53.53,0,0,1,.64.16l13.34,17.64a.51.51,0,0,1,.09.41.51.51,0,0,1-.24.35L162.87,250A.55.55,0,0,1,162.61,250.09Zm-9.74-18.93,9.94,17.71,4.77-2.78L154.9,229.31C154.44,229.7,153.64,230.43,152.87,231.16Z" fill="#231f20"/><polygon points="154.08 232.1 142.95 244.72 151.32 248.21 157.38 232.1 154.08 232.1" fill="#fff"/><path d="M151.32,248.72a.45.45,0,0,1-.2,0l-8.37-3.48a.54.54,0,0,1-.3-.36.51.51,0,0,1,.11-.46l11.14-12.62a.49.49,0,0,1,.38-.18h3.3a.53.53,0,0,1,.42.23.49.49,0,0,1,.06.47l-6.06,16.11a.53.53,0,0,1-.28.29A.45.45,0,0,1,151.32,248.72Zm-7.51-4.2,7.21,3,5.61-14.9h-2.32Z" fill="#231f20"/><path d="M165.7,229.35c-1.41,7-7.33,9.66-13.95,8.79a11.2,11.2,0,0,1-7.38-4.81,6.43,6.43,0,0,1-1.34-4.81c.29-1.66,1.46-3.13,1.5-4.82,0-2-1.61-3.84-1.58-5.89s1.87-3.82,3.57-5.18c-.81.72-.59,2-.11,3a6.76,6.76,0,0,1,1.19,3c0-2.33,1.24-4.44,2.24-6.54s1.77-4.59.8-6.7c.19.43,3.24,1.44,3.83,1.86a12.07,12.07,0,0,1,3.37,3.53c.6,1,.82,2.16,1.48,3.13,1,1.48,2.41,2.4,3.07,4.14,1,2.62.15,5.55-.88,8.15a33.27,33.27,0,0,0,2.84-7.26A18,18,0,0,1,165.7,229.35Z" fill="#68e1fd"/><path d="M142,246.24a2.86,2.86,0,0,0,.36,2.85,4.82,4.82,0,0,0,2.64,1.53,12.3,12.3,0,0,0,3.3.42,3.16,3.16,0,0,0,2.57-1c1.26-1.71,0-4.35-1.53-5.4a5.61,5.61,0,0,0-5.57-.38A3.6,3.6,0,0,0,142,246.24Z" fill="#fff"/><path d="M148.15,251.55a12.5,12.5,0,0,1-3.27-.43,5.3,5.3,0,0,1-2.92-1.71,3.4,3.4,0,0,1-.44-3.35h0a4.19,4.19,0,0,1,2-2.24,6.11,6.11,0,0,1,6.08.42,5.73,5.73,0,0,1,2.21,3.52,3.41,3.41,0,0,1-.56,2.62,3.54,3.54,0,0,1-3,1.17Zm-5.66-5.12a2.37,2.37,0,0,0,.29,2.35,4.35,4.35,0,0,0,2.37,1.34,11.59,11.59,0,0,0,3.15.4,2.62,2.62,0,0,0,2.16-.75,2.41,2.41,0,0,0,.37-1.84,4.67,4.67,0,0,0-1.78-2.84,5.14,5.14,0,0,0-5-.34,3.1,3.1,0,0,0-1.52,1.68Z" fill="#231f20"/><path d="M132.28,239.67a3,3,0,0,0,.67-.62c1.75-2.16-.19-6-3.07-5.12-1.78.51-3.48,2.53-2.5,4.35A3.5,3.5,0,0,0,132.28,239.67Z" fill="#fff"/><path d="M130.56,240.71a3.93,3.93,0,0,1-.95-.12,4.15,4.15,0,0,1-2.68-2.06,2.87,2.87,0,0,1-.1-2.57,4.58,4.58,0,0,1,2.9-2.53,3.27,3.27,0,0,1,3.72,1.42,3.88,3.88,0,0,1-.1,4.53,3.79,3.79,0,0,1-.78.72h0A3.58,3.58,0,0,1,130.56,240.71Zm.12-6.38a2.5,2.5,0,0,0-.66.09,3.59,3.59,0,0,0-2.24,1.94,1.84,1.84,0,0,0,.06,1.68,3.18,3.18,0,0,0,2,1.55,2.66,2.66,0,0,0,2.13-.34,3.1,3.1,0,0,0,.56-.53,2.84,2.84,0,0,0,0-3.3A2.29,2.29,0,0,0,130.68,234.33Zm1.6,5.34h0Z" fill="#231f20"/><path d="M162.61,249.58s-.59-2.48.72-3.48,3.29-1.73,5,.14.31,3.3-1.21,4.32S163.76,251.62,162.61,249.58Z" fill="#fff"/><path d="M165.11,251.76a2.84,2.84,0,0,1-.72-.09,3.55,3.55,0,0,1-2.23-1.84.5.5,0,0,1,0-.13c0-.12-.65-2.82.9-4,2-1.56,4.17-1.48,5.72.2a2.9,2.9,0,0,1,.91,2.31c-.15,1.28-1.34,2.2-2.22,2.79A4.27,4.27,0,0,1,165.11,251.76Zm-2-2.37a2.49,2.49,0,0,0,1.53,1.28,2.86,2.86,0,0,0,2.22-.54c1.11-.74,1.69-1.41,1.77-2a1.93,1.93,0,0,0-.65-1.49c-1.52-1.65-3.19-1-4.33-.08C162.73,247.21,163,249,163.1,249.39Z" fill="#231f20"/><path d="M160.5,228.33l0-.33a5.56,5.56,0,0,1-2.27,2.36c1.17-.65.12-4.81-.34-5.66-.84-1.57-2.78-2.24-3.49-4-.47-1.16,0-2.29,0-3.48-1.29-.24-2.63,1.54-3.32,2.46-3,4-5.11,8.88-2.31,13.59a5.85,5.85,0,0,0,2.26,2.29c2.24,1.15,5.4.13,7.15-1.46A7.48,7.48,0,0,0,160.5,228.33Z" fill="#fff"/><path d="M175.07,235.25a3.87,3.87,0,0,0-3.19,2.91c-.83,2.73.21,3.53,1.65,4s2.79-.1,3.42-2.42S177.14,235.74,175.07,235.25Z" fill="#fff"/><path d="M174.41,242.79a3.52,3.52,0,0,1-1-.17c-1.44-.44-3-1.37-2-4.61a4.36,4.36,0,0,1,3.65-3.28.39.39,0,0,1,.15,0,3.12,3.12,0,0,1,2.1,1.41,4.74,4.74,0,0,1,.16,3.68,4,4,0,0,1-1.75,2.63A2.71,2.71,0,0,1,174.41,242.79Zm.63-7a3.4,3.4,0,0,0-2.66,2.54c-.76,2.47.14,3,1.31,3.33a1.89,1.89,0,0,0,1.51-.08,3.05,3.05,0,0,0,1.25-2,3.81,3.81,0,0,0,0-2.89A2.09,2.09,0,0,0,175,235.77Z" fill="#231f20"/><path d="M190.85,250.76a.51.51,0,0,1-.49-.4.49.49,0,0,1,.39-.59,34.89,34.89,0,0,1,7.95-.74.49.49,0,0,1,.49.51.52.52,0,0,1-.51.49,34,34,0,0,0-7.73.72Z" fill="#d1d3d4"/><path d="M117.25,182.37a.51.51,0,0,1-.46-.28,7.64,7.64,0,0,0-4.38-4.21,7.19,7.19,0,0,0-5.14.5.52.52,0,0,1-.7-.21.51.51,0,0,1,.2-.7,8.29,8.29,0,0,1,5.94-.58,8.61,8.61,0,0,1,5,4.74.51.51,0,0,1-.23.69A.46.46,0,0,1,117.25,182.37Z" fill="#231f20"/><polygon points="133.62 39.67 134.85 44.08 139.25 45.31 134.85 46.54 133.62 50.95 132.38 46.54 127.98 45.31 132.38 44.08 133.62 39.67" fill="#d1d3d4"/><polygon points="283.44 56.63 284.67 61.04 289.08 62.27 284.67 63.5 283.44 67.91 282.21 63.5 277.81 62.27 282.21 61.04 283.44 56.63" fill="#d1d3d4"/><polygon points="263.81 36.79 264.74 40.12 268.07 41.05 264.74 41.98 263.81 45.31 262.88 41.98 259.55 41.05 262.88 40.12 263.81 36.79" fill="#d1d3d4"/></g></svg>