<svg xmlns="http://www.w3.org/2000/svg" viewBox="0 0 400 300"><g id="_92_start_up" data-name="#92_start_up"><path d="M96.89,99.68H303.11a15.43,15.43,0,0,1,15.43,15.43V241.05a0,0,0,0,1,0,0H81.46a0,0,0,0,1,0,0V115.11A15.43,15.43,0,0,1,96.89,99.68Z" fill="#fff"/><path d="M318.54,241.55H81.46a.5.5,0,0,1-.5-.5V115.11A16,16,0,0,1,96.89,99.18H303.11A16,16,0,0,1,319,115.11V241.05A.5.5,0,0,1,318.54,241.55ZM82,240.55H318V115.11a14.94,14.94,0,0,0-14.93-14.93H96.89A14.94,14.94,0,0,0,82,115.11Z" fill="#231f20"/><rect x="96.28" y="112.35" width="207.45" height="128.71" fill="#fff"/><path d="M303.72,241.55H96.28a.5.5,0,0,1-.5-.5V112.35a.5.5,0,0,1,.5-.5H303.72a.5.5,0,0,1,.5.5v128.7A.5.5,0,0,1,303.72,241.55Zm-206.94-1H303.22V112.85H96.78Z" fill="#231f20"/><path d="M67.55,241.05H332.45a0,0,0,0,1,0,0v.66A16.48,16.48,0,0,1,316,258.19H84a16.48,16.48,0,0,1-16.48-16.48v-.66a0,0,0,0,1,0,0Z" fill="#fff"/><path d="M316,258.69H84a17,17,0,0,1-17-17v-.66a.51.51,0,0,1,.5-.5h264.9a.51.51,0,0,1,.5.5v.66A17,17,0,0,1,316,258.69ZM68.05,241.55v.16a16,16,0,0,0,16,16H316a16,16,0,0,0,16-16v-.16Z" fill="#231f20"/><rect x="173.99" y="241.05" width="52.02" height="4.51" fill="#231f20"/><path d="M226,246.06H174a.5.5,0,0,1-.5-.5v-4.51a.5.5,0,0,1,.5-.5h52a.5.5,0,0,1,.5.5v4.51A.5.5,0,0,1,226,246.06Zm-51.52-1h51v-3.51h-51Z" fill="#231f20"/><path d="M302.79,127.55H97.21a.5.5,0,0,1-.5-.5.51.51,0,0,1,.5-.5H302.79a.51.51,0,0,1,.5.5A.5.5,0,0,1,302.79,127.55Z" fill="#d1d3d4"/><circle cx="106.31" cy="119.95" r="3.36" fill="#68e1fd"/><circle cx="116.73" cy="119.95" r="3.36" fill="#d1d3d4"/><circle cx="127.15" cy="119.95" r="3.36" fill="#d1d3d4"/><path d="M296.76,190.86H239.67a.51.51,0,0,1-.5-.5V149.79a.5.5,0,0,1,.5-.5h57.09a.5.5,0,0,1,.5.5v40.57A.5.5,0,0,1,296.76,190.86Zm-56.59-1h56.09V150.29H240.17Z" fill="#d1d3d4"/><rect x="189.38" y="156.29" width="21.23" height="68.13" fill="#fff"/><path d="M210.62,224.92H189.38a.5.5,0,0,1-.5-.5V156.29a.51.51,0,0,1,.5-.5h21.24a.51.51,0,0,1,.5.5v68.13A.5.5,0,0,1,210.62,224.92Zm-20.74-1h20.24V156.79H189.88Z" fill="#231f20"/><path d="M108.39,241.05s4.65-25.86,22.11-33,26.95,7.48,26.95,7.48,4.56-24,32.27-24,34.16,18.91,34.16,18.91,5.69-11.43,18.22-10.64,14.42,16.48,14.42,16.48,11.13-5.59,23.16,0,17.08,24.75,17.08,24.75Z" fill="#fff"/><path d="M296.76,241.55H108.39a.52.52,0,0,1-.39-.17.51.51,0,0,1-.1-.41A65.92,65.92,0,0,1,112.44,227c3.09-6.79,8.7-15.67,17.87-19.4,15.08-6.12,24.45,3.73,26.91,6.81,1.3-4.68,8.05-23.39,32.5-23.39,24.12,0,32.43,14.4,34.23,18.29,1.69-2.72,7.57-10.69,18.18-10,11.29.71,14.23,13.22,14.78,16.26,2.53-1.06,12.47-4.61,23,.27,12.11,5.62,17.15,24.29,17.35,25.08a.5.5,0,0,1-.08.43A.51.51,0,0,1,296.76,241.55Zm-187.76-1H296.1c-1-3.33-6.17-18.94-16.63-23.8-11.68-5.42-22.61-.06-22.72,0a.5.5,0,0,1-.46,0,.52.52,0,0,1-.26-.38c0-.15-2-15.29-14-16s-17.69,10.25-17.74,10.37a.48.48,0,0,1-.48.27.49.49,0,0,1-.44-.34c-.07-.18-6.69-18.57-33.69-18.57-14.11,0-22,6.43-26.13,11.82a31.4,31.4,0,0,0-5.65,11.81.5.5,0,0,1-.39.4.52.52,0,0,1-.52-.22c-.38-.58-9.48-14.15-26.34-7.3-8.86,3.6-14.32,12.24-17.33,18.86A66.64,66.64,0,0,0,109,240.55Z" fill="#231f20"/><polygon points="211.24 167.12 188.2 167.12 185.43 156.04 214.01 156.04 211.24 167.12" fill="#fff"/><path d="M211.24,167.61h-23a.5.5,0,0,1-.49-.37L185,156.16a.48.48,0,0,1,.09-.43.49.49,0,0,1,.39-.19H214a.49.49,0,0,1,.39.19.52.52,0,0,1,.1.43l-2.77,11.08A.5.5,0,0,1,211.24,167.61Zm-22.65-1h22.26l2.52-10.07h-27.3Z" fill="#231f20"/><path d="M173.89,121.48s-12.08,7.55-16.28,20.13S163,178.52,163,178.52l22-23.82Z" fill="#fff"/><path d="M163,179h-.09a.48.48,0,0,1-.37-.3c-.4-1-9.58-24.64-5.38-37.25s16.36-20.32,16.48-20.4a.52.52,0,0,1,.44,0,.53.53,0,0,1,.3.32l11.07,33.21a.5.5,0,0,1-.1.5l-22,23.82A.52.52,0,0,1,163,179Zm10.64-56.76c-2.37,1.63-12,8.75-15.53,19.51-3.68,11,3.52,31.63,5.07,35.82l21.23-23Z" fill="#231f20"/><path d="M226.11,121.48s12.08,7.55,16.28,20.13S237,178.52,237,178.52L215,154.7Z" fill="#fff"/><path d="M237,179a.49.49,0,0,1-.37-.16l-22-23.82a.5.5,0,0,1-.1-.5l11.07-33.21a.53.53,0,0,1,.3-.32.52.52,0,0,1,.44,0c.12.08,12.28,7.79,16.48,20.4s-5,36.25-5.38,37.25a.48.48,0,0,1-.37.3Zm-21.41-24.44,21.23,23c1.55-4.19,8.75-24.78,5.07-35.82-3.58-10.76-13.16-17.88-15.53-19.51Z" fill="#231f20"/><path d="M219.46,160.24c6-14.38,9.79-35.21,9.79-58.38,0-35.13-19.38-53.42-26.74-59.1a4.56,4.56,0,0,0-5.58,0c-7.36,5.68-26.74,24-26.74,59.1,0,23.17,3.78,44,9.79,58.38,0,0,6,3,19.74,3S219.46,160.24,219.46,160.24Z" fill="#68e1fd"/><path d="M196.93,42.76A68.47,68.47,0,0,0,176.39,70h46.66a68.47,68.47,0,0,0-20.54-27.22A4.56,4.56,0,0,0,196.93,42.76Z" fill="#fff"/><path d="M223.05,70.48H176.39a.5.5,0,0,1-.46-.69,68.58,68.58,0,0,1,20.69-27.42l.31.39-.31-.39a5.07,5.07,0,0,1,6.2,0,68.58,68.58,0,0,1,20.69,27.42.5.5,0,0,1-.46.69Zm-45.9-1h45.14a67.57,67.57,0,0,0-20.08-26.32,4.07,4.07,0,0,0-5,0h0A67.48,67.48,0,0,0,177.15,69.48Z" fill="#231f20"/><circle cx="200.88" cy="96.09" r="18.01" fill="#fff"/><path d="M200.88,114.6a18.51,18.51,0,1,1,18.5-18.51A18.53,18.53,0,0,1,200.88,114.6Zm0-36a17.51,17.51,0,1,0,17.5,17.5A17.52,17.52,0,0,0,200.88,78.59Z" fill="#231f20"/><circle cx="200.88" cy="96.09" r="11.11" fill="#231f20"/><path d="M200.88,107.7a11.61,11.61,0,1,1,11.61-11.61A11.61,11.61,0,0,1,200.88,107.7Zm0-22.22a10.61,10.61,0,1,0,10.61,10.61A10.62,10.62,0,0,0,200.88,85.48Z" fill="#231f20"/><path d="M209.69,95.56a.5.5,0,0,1-.49-.42c-1.14-7.79-8-7.44-8.29-7.42a.5.5,0,0,1-.07-1A9,9,0,0,1,210.18,95a.5.5,0,0,1-.42.57Z" fill="#fff"/><path d="M197,88.79a.51.51,0,0,1-.39-.19.49.49,0,0,1,.09-.7,4.73,4.73,0,0,1,2.06-.86.5.5,0,0,1,.56.43.5.5,0,0,1-.43.56,3.64,3.64,0,0,0-1.58.66A.52.52,0,0,1,197,88.79Z" fill="#fff"/><path d="M217.28,155.41l-.16,0a.5.5,0,0,1-.31-.63,259.43,259.43,0,0,0,7.53-30.14.48.48,0,0,1,.58-.39.5.5,0,0,1,.4.58,256,256,0,0,1-7.57,30.26A.49.49,0,0,1,217.28,155.41Z" fill="#fff"/><path d="M202.57,183.4a.51.51,0,0,1-.5-.5V168.62a.5.5,0,0,1,.5-.5.5.5,0,0,1,.5.5V182.9A.5.5,0,0,1,202.57,183.4Z" fill="#231f20"/><path d="M194.88,190.86a.5.5,0,0,1-.5-.5V175.44a.5.5,0,0,1,1,0v14.92A.5.5,0,0,1,194.88,190.86Z" fill="#231f20"/><path d="M149,227.63h-.1a.5.5,0,0,1-.39-.59c.06-.31,1.54-7.58,7.91-10.93,4.65-2.45,10.64-2.11,17.8,1a.5.5,0,0,1,.26.66.49.49,0,0,1-.66.25c-6.86-3-12.56-3.32-16.93-1-5.94,3.11-7.39,10.16-7.4,10.23A.5.5,0,0,1,149,227.63Z" fill="#231f20"/><path d="M234.35,218.68a.49.49,0,0,1-.37-.16c-10.79-11.93-18.83-7.21-19.17-7a.51.51,0,0,1-.69-.17.49.49,0,0,1,.17-.68c.09-.06,9.05-5.4,20.43,7.18a.49.49,0,0,1,0,.7A.5.5,0,0,1,234.35,218.68Z" fill="#231f20"/><path d="M140.37,150.29h-32a.5.5,0,0,1,0-1h32a.5.5,0,0,1,0,1Z" fill="#d1d3d4"/><path d="M140.37,162.23h-32a.5.5,0,0,1-.5-.5.5.5,0,0,1,.5-.5h32a.51.51,0,0,1,.5.5A.5.5,0,0,1,140.37,162.23Z" fill="#d1d3d4"/><path d="M140.37,174.18h-32a.5.5,0,0,1-.5-.5.5.5,0,0,1,.5-.5h32a.5.5,0,0,1,.5.5A.51.51,0,0,1,140.37,174.18Z" fill="#d1d3d4"/><path d="M140.37,186.12h-32a.5.5,0,0,1-.5-.5.5.5,0,0,1,.5-.5h32a.5.5,0,0,1,.5.5A.51.51,0,0,1,140.37,186.12Z" fill="#d1d3d4"/><path d="M154.43,60.8a1.7,1.7,0,0,1-.59-.1A1.83,1.83,0,0,1,152.58,59l-.06-3.81a.82.82,0,0,0-.32-.65l-3-2.33a1.82,1.82,0,0,1-.62-2,1.8,1.8,0,0,1,1.71-1.25l3.82-.07a.81.81,0,0,0,.64-.32l2.34-3a1.83,1.83,0,0,1,3.28,1.09l.06,3.82a.81.81,0,0,0,.32.64l3,2.34a1.79,1.79,0,0,1,.62,2,1.81,1.81,0,0,1-1.71,1.26l-3.82.06a.81.81,0,0,0-.64.32l-2.33,3A1.83,1.83,0,0,1,154.43,60.8Zm4.07-15a.77.77,0,0,0-.64.32l-2.34,3a1.77,1.77,0,0,1-1.42.71l-3.81.07a.8.8,0,0,0-.78.57.82.82,0,0,0,.28.92l3,2.33a1.77,1.77,0,0,1,.71,1.42l.06,3.82a.84.84,0,0,0,1.5.49l2.33-3a1.83,1.83,0,0,1,1.42-.71l3.81-.06a.83.83,0,0,0,.5-1.49l-3-2.34a1.81,1.81,0,0,1-.71-1.42l-.06-3.81a.82.82,0,0,0-.85-.82Z" fill="#d1d3d4"/><path d="M263.28,68.31a2.1,2.1,0,0,1-1.93-1.25l-1.93-4.23a1.15,1.15,0,0,0-.75-.63l-4.52-1.13a2.13,2.13,0,0,1-.37-4L258,55.14a1.11,1.11,0,0,0,.62-.75l1.13-4.52a2.13,2.13,0,0,1,4-.37l1.94,4.24a1.13,1.13,0,0,0,.75.63L271,55.5a2.12,2.12,0,0,1,.36,4l-4.24,1.94a1.09,1.09,0,0,0-.62.75l-1.13,4.52a2.1,2.1,0,0,1-1.87,1.6Zm-1.44-19.05h-.11a1.12,1.12,0,0,0-1,.85l-1.13,4.52a2.13,2.13,0,0,1-1.18,1.42L254.2,58a1.12,1.12,0,0,0-.66,1.13,1.1,1.1,0,0,0,.85,1l4.52,1.13a2.13,2.13,0,0,1,1.42,1.18l1.93,4.24a1.13,1.13,0,0,0,2.12-.2l1.13-4.51a2.13,2.13,0,0,1,1.18-1.42l4.24-1.94a1.09,1.09,0,0,0,.65-1.12,1.1,1.1,0,0,0-.85-1l-4.52-1.14a2.07,2.07,0,0,1-1.41-1.17l-1.94-4.24h0A1.08,1.08,0,0,0,261.84,49.26Z" fill="#d1d3d4"/><path d="M244,86.31a1.61,1.61,0,0,1-1.48-1l-1.34-3a.67.67,0,0,0-.42-.35l-3.15-.79a1.63,1.63,0,0,1-.28-3.06l2.95-1.35a.64.64,0,0,0,.35-.42l.79-3.14a1.63,1.63,0,0,1,3.06-.28h0l1.35,3a.64.64,0,0,0,.42.35l3.14.78a1.63,1.63,0,0,1,1.23,1.44,1.61,1.61,0,0,1-.95,1.63l-3,1.34a.67.67,0,0,0-.35.42l-.78,3.15a1.61,1.61,0,0,1-1.44,1.22Zm-1-13.24h-.06a.62.62,0,0,0-.56.47l-.78,3.15a1.59,1.59,0,0,1-.91,1.08l-2.94,1.35a.62.62,0,0,0,.11,1.18l3.14.79A1.63,1.63,0,0,1,242,82l1.34,2.94a.61.61,0,0,0,.63.37.63.63,0,0,0,.56-.48l.78-3.14a1.63,1.63,0,0,1,.91-1.09l2.94-1.34a.63.63,0,0,0-.11-1.19L246,77.29a1.59,1.59,0,0,1-1.08-.91l-1.35-2.94A.6.6,0,0,0,243,73.07Z" fill="#d1d3d4"/><path d="M207,188.93a.5.5,0,0,1-.5-.5v-6.21a.51.51,0,0,1,.5-.5.5.5,0,0,1,.5.5v6.21A.5.5,0,0,1,207,188.93Z" fill="#231f20"/><path d="M115.77,82.64c.3-.88.59-1.76.9-2.64.16-.46.34-.9.53-1.35a1.31,1.31,0,0,1,1.39-.86c.72.08,1.42.23,2.13.35a7.55,7.55,0,0,0,1.15.15,1.25,1.25,0,0,0,.79-.26c.82-.77,1.6-1.59,2.37-2.41a1.21,1.21,0,0,0,.24-1.13c-.18-.86-.39-1.71-.56-2.57a3.57,3.57,0,0,1-.1-1,.91.91,0,0,1,.34-.65,15.59,15.59,0,0,1,4.25-2,1.07,1.07,0,0,1,1.22.44c.54.75,1.11,1.48,1.63,2.24a1.74,1.74,0,0,0,1.68.84c.94-.07,1.89-.08,2.83-.13a1,1,0,0,0,.85-.51c.34-.5.66-1,1-1.51s.56-.86.86-1.28a1.07,1.07,0,0,1,1.3-.45c1.31.45,2.61.91,3.9,1.41a1.12,1.12,0,0,1,.7,1.26c-.07.72-.23,1.44-.35,2.16-.05.33-.1.68-.13,1a1.37,1.37,0,0,0,.44,1.19c.68.65,1.38,1.29,2,2a1.52,1.52,0,0,0,1.53.43c.93-.2,1.86-.43,2.79-.63a1.24,1.24,0,0,1,1.56.74c.53,1.12,1,2.24,1.54,3.37a1.32,1.32,0,0,1-.48,1.86c-.48.38-1,.71-1.49,1.08s-.7.53-1,.82a1.24,1.24,0,0,0-.44,1c0,1,0,2,.09,2.93a1.5,1.5,0,0,0,.78,1.29c.53.32,1.08.63,1.61,1,.32.2.65.41,1,.64a1.15,1.15,0,0,1,.43,1.4c-.43,1.18-.87,2.35-1.32,3.52a2.38,2.38,0,0,1-.29.51,1,1,0,0,1-1.09.51l-2.54-.42-.19,0a1.79,1.79,0,0,0-1.94.68c-.48.56-1,1.07-1.54,1.61a1.84,1.84,0,0,0-.47,1.84c.21.82.41,1.64.58,2.47a1.22,1.22,0,0,1-.8,1.65c-1.15.55-2.31,1.07-3.48,1.57a1.17,1.17,0,0,1-1.55-.41c-.45-.57-.87-1.17-1.29-1.77-.91-1.27-1.14-1.39-2.71-1.31l-1.83.11a1.68,1.68,0,0,0-1.44.83c-.37.62-.73,1.25-1.12,1.85a5.93,5.93,0,0,1-.7.87.85.85,0,0,1-1,.25l-3.71-1.38a2.2,2.2,0,0,1-.47-.27,1,1,0,0,1-.52-1.1c.13-.83.28-1.67.41-2.51a6.51,6.51,0,0,0,.07-.76,1.33,1.33,0,0,0-.42-1.14c-.67-.61-1.34-1.24-2-1.86a1.46,1.46,0,0,0-1.46-.36l-2.48.57-.09,0c-1.08.2-1.43.06-1.9-.93s-1-2.24-1.46-3.37a1.11,1.11,0,0,1,.45-1.54c.66-.5,1.33-1,2-1.44a2,2,0,0,0,1-1.95c-.06-.88-.08-1.76-.12-2.64a1.13,1.13,0,0,0-.52-.92c-.73-.46-1.47-.92-2.2-1.4a2.32,2.32,0,0,1-1.15-1.2Zm28,4.91a8.34,8.34,0,0,0-8.41-8.36,8.48,8.48,0,0,0-8.23,8.37,8.35,8.35,0,0,0,8.28,8.31A8.25,8.25,0,0,0,143.75,87.55Z" fill="#fff"/><path d="M130.64,107.7a1.41,1.41,0,0,1-.49-.09l-.92-.34-2.78-1a2.72,2.72,0,0,1-.51-.28,1.57,1.57,0,0,1-.8-1.63l.18-1.15c.08-.45.15-.91.22-1.36a5.85,5.85,0,0,0,.07-.72.85.85,0,0,0-.26-.74l-1.79-1.66-.22-.21a1,1,0,0,0-1-.24c-.58.15-1.16.28-1.74.41l-.75.17-.11,0a1.85,1.85,0,0,1-2.44-1.22c-.46-1-.91-2-1.47-3.39a1.6,1.6,0,0,1,.61-2.13c.77-.59,1.42-1,2-1.46a1.48,1.48,0,0,0,.76-1.49c0-.55-.06-1.1-.08-1.64,0-.34,0-.67,0-1a.6.6,0,0,0-.29-.52l-.9-.57-1.3-.84a2.86,2.86,0,0,1-1.36-1.46.44.44,0,0,1,0-.16v-.32a.78.78,0,0,1,0-.16l.26-.75c.21-.64.43-1.27.65-1.9.16-.46.35-.92.54-1.37a1.77,1.77,0,0,1,1.91-1.16c.48,0,1,.14,1.43.22.24,0,.48.09.72.12l.29.06a3.72,3.72,0,0,0,.77.09.81.81,0,0,0,.45-.12c.87-.82,1.68-1.67,2.35-2.39a.69.69,0,0,0,.12-.68c-.08-.38-.16-.76-.25-1.14s-.22-1-.31-1.44a4,4,0,0,1-.11-1.17,1.46,1.46,0,0,1,.57-1,16.07,16.07,0,0,1,4.39-2,1.57,1.57,0,0,1,1.75.63l.59.78c.36.49.72,1,1.06,1.47a1.24,1.24,0,0,0,1.23.63c.61,0,1.23-.07,1.84-.1l1,0a.54.54,0,0,0,.46-.29l.59-.9.53-.82c.24-.36.48-.73.73-1.08a1.58,1.58,0,0,1,1.87-.63c1.58.54,2.79,1,3.92,1.41a1.63,1.63,0,0,1,1,1.78c0,.49-.14,1-.22,1.46-.05.24-.09.48-.13.72s-.1.66-.13,1a.9.9,0,0,0,.28.79l.48.45c.53.5,1.07,1,1.58,1.53a1,1,0,0,0,1.07.29l1.37-.31,1.42-.32a1.74,1.74,0,0,1,2.12,1c.54,1.12,1.05,2.24,1.55,3.38a1.81,1.81,0,0,1-.63,2.45q-.43.35-.9.66l-.6.43c-.34.25-.68.52-1,.8a.68.68,0,0,0-.27.57l0,.63c0,.76,0,1.53.07,2.29a1,1,0,0,0,.54.9l.68.4.93.55a9.77,9.77,0,0,1,1,.68,1.65,1.65,0,0,1,.6,2c-.43,1.18-.87,2.36-1.32,3.53a2.47,2.47,0,0,1-.31.56,1.56,1.56,0,0,1-1.62.77l-2.54-.42-.23,0a1.32,1.32,0,0,0-1.44.52c-.34.41-.72.78-1.09,1.16l-.47.47a1.33,1.33,0,0,0-.34,1.37c.21.83.41,1.67.58,2.5a1.7,1.7,0,0,1-1.07,2.2c-1.06.51-2.2,1-3.51,1.58a1.65,1.65,0,0,1-2.13-.56c-.38-.47-.73-1-1.08-1.46l-.23-.33c-.81-1.14-.88-1.17-2.27-1.1l-1.84.1a1.2,1.2,0,0,0-1,.6l-.37.62c-.25.42-.5.83-.76,1.24a5.44,5.44,0,0,1-.77.95A1.4,1.4,0,0,1,130.64,107.7Zm-8-10.5a1.92,1.92,0,0,1,1.35.55l.22.21c.59.55,1.18,1.11,1.78,1.65a1.83,1.83,0,0,1,.58,1.53,7.34,7.34,0,0,1-.08.82c-.07.46-.15.92-.22,1.38l-.19,1.13a.55.55,0,0,0,.3.6,2.2,2.2,0,0,0,.38.22l2.77,1,.93.35a.39.39,0,0,0,.44-.13,6.22,6.22,0,0,0,.64-.8c.26-.4.5-.8.74-1.21l.37-.62a2.17,2.17,0,0,1,1.84-1.08l1.83-.11c1.75-.09,2.13.1,3.14,1.52l.24.33c.34.48.68,1,1,1.42a.68.68,0,0,0,1,.26c1.29-.55,2.42-1.06,3.47-1.56.59-.29.66-.43.52-1.1s-.37-1.64-.57-2.45a2.31,2.31,0,0,1,.59-2.31l.48-.48c.35-.36.71-.72,1-1.11a2.34,2.34,0,0,1,2.44-.84l.16,0,2.54.43a.55.55,0,0,0,.6-.3,3.47,3.47,0,0,0,.24-.4c.44-1.17.88-2.35,1.31-3.52a.65.65,0,0,0-.27-.83,8.23,8.23,0,0,0-.92-.62l-.91-.54-.69-.41a2,2,0,0,1-1-1.7c0-.77-.05-1.55-.07-2.32l0-.62a1.69,1.69,0,0,1,.61-1.36c.34-.3.7-.58,1.06-.85L153,83c.29-.2.57-.4.85-.62.53-.42.6-.66.33-1.27-.49-1.13-1-2.24-1.53-3.35a.75.75,0,0,0-1-.47l-1.4.32-1.39.31a2,2,0,0,1-2-.57c-.51-.52-1-1-1.56-1.5l-.48-.45a2,2,0,0,1-.59-1.6c0-.36.08-.71.14-1.06s.09-.5.13-.75c.09-.46.17-.92.22-1.38a.67.67,0,0,0-.39-.75c-1.12-.42-2.31-.86-3.88-1.4a.6.6,0,0,0-.74.27c-.24.34-.47.7-.71,1l-.52.81-.6.92a1.54,1.54,0,0,1-1.25.73l-1,0c-.6,0-1.21,0-1.81.09a2.22,2.22,0,0,1-2.13-1.06c-.33-.49-.68-1-1-1.43L130,69a.55.55,0,0,0-.68-.25,14.72,14.72,0,0,0-4.12,1.88.66.66,0,0,0-.1.28,2.9,2.9,0,0,0,.09.87c.09.47.2,1,.31,1.42s.17.77.25,1.15a1.68,1.68,0,0,1-.37,1.57c-.68.73-1.5,1.59-2.39,2.43a1.78,1.78,0,0,1-1.12.4,4.77,4.77,0,0,1-1-.11l-.28-.05-.73-.13c-.46-.08-.91-.16-1.37-.21a.78.78,0,0,0-.88.55c-.18.44-.36.88-.52,1.32l-.65,1.89-.22.82a2.13,2.13,0,0,0,.91.87l1.31.83.9.57a1.58,1.58,0,0,1,.74,1.32c0,.34,0,.68.05,1,0,.53,0,1.07.08,1.61a2.48,2.48,0,0,1-1.22,2.4c-.6.4-1.24.84-2,1.41-.43.33-.48.49-.28,1,.55,1.37,1,2.4,1.44,3.34.36.77.47.82,1.36.66l.82-.19,1.72-.4A2.34,2.34,0,0,1,122.68,97.2Zm12.73-.83h0a8.79,8.79,0,0,1-6.17-15,9.06,9.06,0,0,1,6.12-2.64,8.81,8.81,0,0,1,8.91,8.84,8.38,8.38,0,0,1-2.37,6.08A8.8,8.8,0,0,1,135.41,96.37Zm-.1-16.68A7.92,7.92,0,0,0,129.92,82a7.79,7.79,0,0,0,5.47,13.33h0a7.79,7.79,0,0,0,5.74-2.45,7.36,7.36,0,0,0,2.1-5.34v0a7.82,7.82,0,0,0-7.92-7.86Z" fill="#d1d3d4"/><path d="M276.1,122.84c-1.22-.41-2.43-.87-3.66-1.22a3.52,3.52,0,0,1-2.85-4,21.09,21.09,0,0,0-1.56-9,17.1,17.1,0,0,1,.36-13C272.16,87,281,84.07,289.77,88c12.92,5.78,12.07,20.87,1.86,28.12-2.75,2-5.4,3.88-7.27,6.77a3.37,3.37,0,0,1-4.42,1.27C278.68,123.67,277.38,123.27,276.1,122.84Z" fill="#fff"/><path d="M281.6,125a5.21,5.21,0,0,1-1.83-.36c-.86-.32-1.73-.61-2.61-.89l-1.22-.41-1.12-.38c-.83-.29-1.68-.59-2.52-.83a4,4,0,0,1-3.21-4.54,20.87,20.87,0,0,0-1.53-8.82,17.69,17.69,0,0,1,.37-13.38,15.58,15.58,0,0,1,8.67-8.56,17.38,17.38,0,0,1,13.38.73c5.69,2.54,9.27,7.2,9.82,12.78.61,6.11-2.41,12.31-7.88,16.2-2.6,1.85-5.29,3.76-7.14,6.63A3.67,3.67,0,0,1,281.6,125Zm.58-38.18a14.17,14.17,0,0,0-13.33,9,16.48,16.48,0,0,0-.35,12.63,21.73,21.73,0,0,1,1.59,9.25,3,3,0,0,0,2.48,3.49c.87.24,1.74.55,2.58.84l1.11.39h0l1.21.4c.89.29,1.78.58,2.65.91a2.89,2.89,0,0,0,3.82-1.08c2-3,4.73-5,7.4-6.91a17,17,0,0,0,7.47-15.28c-.53-5.29-3.81-9.54-9.24-12A18.17,18.17,0,0,0,282.18,86.79Z" fill="#d1d3d4"/><rect x="268.55" y="122.75" width="13.79" height="3.92" rx="1.69" transform="matrix(0.95, 0.32, -0.32, 0.95, 54.06, -81.23)" fill="#fff"/><path d="M280.29,128.81a2.37,2.37,0,0,1-.69-.11h0l-9.87-3.32a2.2,2.2,0,0,1-1.38-2.77l.17-.51a2.19,2.19,0,0,1,1.1-1.27,2.16,2.16,0,0,1,1.67-.11l9.87,3.31a2.19,2.19,0,0,1,1.27,1.1,2.16,2.16,0,0,1,.11,1.67l-.17.52A2.2,2.2,0,0,1,280.29,128.81Zm-.37-1.06a1.19,1.19,0,0,0,1.5-.75l.17-.51a1.2,1.2,0,0,0-.06-.91,1.17,1.17,0,0,0-.69-.6L271,121.67a1.19,1.19,0,0,0-1.51.74l-.17.52a1.18,1.18,0,0,0,.75,1.5Z" fill="#d1d3d4"/><rect x="267.31" y="126.46" width="13.79" height="3.92" rx="1.69" transform="translate(55.18 -80.64) rotate(18.57)" fill="#fff"/><path d="M279,132.52a2.37,2.37,0,0,1-.69-.11h0l-9.87-3.32a2.2,2.2,0,0,1-1.38-2.77l.18-.51a2.11,2.11,0,0,1,1.1-1.26,2.2,2.2,0,0,1,1.67-.12l9.87,3.32a2.18,2.18,0,0,1,1.37,2.77l-.17.51A2.2,2.2,0,0,1,279,132.52Zm-.37-1.06a1.19,1.19,0,0,0,1.5-.75l.17-.51a1.16,1.16,0,0,0-.06-.91,1.17,1.17,0,0,0-.68-.59l-9.87-3.32a1.2,1.2,0,0,0-.91.06,1.19,1.19,0,0,0-.59.69l-.18.51a1.2,1.2,0,0,0,.06.91,1.22,1.22,0,0,0,.69.59Z" fill="#d1d3d4"/><path d="M278.64,132c-.47,1.4-3.12,1.77-5.92.83s-4.68-2.84-4.21-4.24Z" fill="#fff"/><path d="M275.69,133.83a10,10,0,0,1-3.13-.55,9.22,9.22,0,0,1-3.52-2.06,2.81,2.81,0,0,1-1-2.81.51.51,0,0,1,.64-.31l10.13,3.4a.53.53,0,0,1,.29.26.5.5,0,0,1,0,.38,2.81,2.81,0,0,1-2.49,1.63A7.19,7.19,0,0,1,275.69,133.83ZM269,129.25a2.72,2.72,0,0,0,.78,1.26,8.16,8.16,0,0,0,3.14,1.82c2.27.77,4.23.57,5-.08Z" fill="#d1d3d4"/><path d="M279.85,122.42h-.08a.5.5,0,0,1-.41-.58,41.87,41.87,0,0,1,2.71-9.35,12.59,12.59,0,0,1-3.91-1,50.35,50.35,0,0,1-3.1,8.57l-.16.35A.5.5,0,0,1,274,120l.16-.36a48,48,0,0,0,3.09-8.61,12.09,12.09,0,0,1-4.33-3.8,6.58,6.58,0,0,1-1.3-3.28,3.75,3.75,0,0,1,1.43-3.35,3.34,3.34,0,0,1,2.82-.38A3.29,3.29,0,0,1,278,102a14,14,0,0,1,.62,6.24,20.56,20.56,0,0,1-.29,2.21,11.83,11.83,0,0,0,4.14,1,.89.89,0,0,1,.08-.17l.13-.29c1.09-2.32,2.45-5.21,4.84-6.54a3.53,3.53,0,0,1,2.89-.41,1.81,1.81,0,0,1,1,1.39,5.3,5.3,0,0,1-1.54,4.58,8.43,8.43,0,0,1-4.22,2.18,11.33,11.33,0,0,1-2.53.27h0a40.54,40.54,0,0,0-2.79,9.48A.51.51,0,0,1,279.85,122.42Zm9.72-17.5a3.42,3.42,0,0,0-1.53.46c-2.11,1.18-3.39,3.9-4.42,6.09l0,0a10.55,10.55,0,0,0,1.85-.25,7.36,7.36,0,0,0,3.73-1.9,4.3,4.3,0,0,0,1.27-3.69c-.1-.52-.35-.64-.43-.68A1.09,1.09,0,0,0,289.57,104.92Zm-14.76-3.84a2.09,2.09,0,0,0-1.2.35,2.79,2.79,0,0,0-1,2.46,5.81,5.81,0,0,0,1.13,2.78,11.24,11.24,0,0,0,3.71,3.35c.1-.6.18-1.21.22-1.82a13.09,13.09,0,0,0-.54-5.77,2.32,2.32,0,0,0-1.53-1.24A3,3,0,0,0,274.81,101.08Z" fill="#d1d3d4"/><path d="M108.39,58.78a.5.5,0,0,1-.5-.5V55.09a.5.5,0,0,1,.5-.5.51.51,0,0,1,.5.5v3.19A.5.5,0,0,1,108.39,58.78Z" fill="#d1d3d4"/><path d="M108.39,65.45a.5.5,0,0,1-.5-.5V61.76a.5.5,0,0,1,.5-.5.5.5,0,0,1,.5.5V65A.51.51,0,0,1,108.39,65.45Z" fill="#d1d3d4"/><path d="M113.32,60.52h-3.2a.5.5,0,0,1,0-1h3.2a.5.5,0,0,1,0,1Z" fill="#d1d3d4"/><path d="M106.65,60.52h-3.19a.5.5,0,0,1,0-1h3.19a.5.5,0,0,1,0,1Z" fill="#d1d3d4"/><path d="M97.21,83.75a.51.51,0,0,1-.5-.5V80.06a.5.5,0,0,1,.5-.5.5.5,0,0,1,.5.5v3.19A.5.5,0,0,1,97.21,83.75Z" fill="#d1d3d4"/><path d="M97.21,90.41a.5.5,0,0,1-.5-.5V86.72a.5.5,0,0,1,.5-.5.5.5,0,0,1,.5.5v3.19A.5.5,0,0,1,97.21,90.41Z" fill="#d1d3d4"/><path d="M102.14,85.48H99a.5.5,0,0,1-.5-.5.5.5,0,0,1,.5-.5h3.19a.5.5,0,0,1,.5.5A.5.5,0,0,1,102.14,85.48Z" fill="#d1d3d4"/><path d="M95.48,85.48H92.29a.5.5,0,0,1-.5-.5.5.5,0,0,1,.5-.5h3.19a.51.51,0,0,1,.5.5A.5.5,0,0,1,95.48,85.48Z" fill="#d1d3d4"/><path d="M292.58,72.48a.5.5,0,0,1-.5-.5V68.79a.5.5,0,0,1,1,0V72A.5.5,0,0,1,292.58,72.48Z" fill="#d1d3d4"/><path d="M292.58,79.14a.5.5,0,0,1-.5-.5V75.45a.5.5,0,1,1,1,0v3.19A.5.5,0,0,1,292.58,79.14Z" fill="#d1d3d4"/><path d="M297.51,74.21h-3.19a.5.5,0,0,1-.5-.5.5.5,0,0,1,.5-.5h3.19a.51.51,0,0,1,.5.5A.5.5,0,0,1,297.51,74.21Z" fill="#d1d3d4"/><path d="M290.84,74.21h-3.19a.5.5,0,0,1-.5-.5.51.51,0,0,1,.5-.5h3.19a.5.5,0,0,1,.5.5A.5.5,0,0,1,290.84,74.21Z" fill="#d1d3d4"/></g></svg>